<?xml version="1.0" encoding="utf-8"?>
<!DOCTYPE svg PUBLIC "-//W3C//DTD SVG 20010904//EN" "http://www.w3.org/TR/2001/REC-SVG-20010904/DTD/svg10.dtd">
<svg version="1.0" xmlns="http://www.w3.org/2000/svg" width="1392px" height="631px" viewBox="0 0 1392 631" preserveAspectRatio="xMidYMid meet">
 <g fill="#00aca3">
  <path d="M814 557 c-10.2 -1.8 -15.6 -10.5 -14.8 -23.5 0.4 -7.3 3.1 -12.8 8.2 -16.9 3.5 -2.8 4.4 -3.1 11.1 -3.1 6.7 0 7.6 0.3 11.2 3.1 6.2 5.1 7.8 8.7 7.7 17.9 0 6.2 -0.5 8.9 -2.2 12.1 -2.4 4.7 -7.2 9.2 -10.5 9.8 -4.9 1 -7.4 1.2 -10.7 0.6z m11.2 -7.9 c4.5 -3.6 6.4 -16.4 3.4 -23.6 -2.6 -6.1 -10.2 -8.2 -16.3 -4.5 -5.7 3.4 -7.9 17 -4.1 24.5 2.9 5.6 12 7.5 17 3.6z"/>
  <path d="M1210.1 556.9 c-6.2 -1.2 -10 -4.9 -11.5 -11.1 -0.6 -2.6 -0.4 -2.8 2.7 -2.8 2.8 0 3.6 0.5 5 3.5 2.9 6.1 13.8 6.9 18.1 1.2 3.4 -4.6 0.8 -7 -12 -10.6 -10.1 -2.9 -12.4 -5 -12.4 -11.3 0 -4.3 0.4 -5.4 3.3 -8.3 3.7 -3.7 9.3 -5.1 16.3 -4 5.3 0.8 11.4 6.1 11.4 10 0 2.1 -0.5 2.5 -3.1 2.5 -2.3 0 -3.2 -0.5 -3.6 -2 -1.8 -6.8 -17.3 -6.3 -17.3 0.5 0 3.2 3.2 5.2 12 7.5 8.3 2.1 11.7 4.1 13 7.6 1.4 3.6 1.2 6.1 -0.6 10 -3 6.2 -11.7 9.2 -21.3 7.3z"/>
  <path d="M667 555.1 c-11.7 -6.2 -13.4 -27 -3.1 -36.4 5.4 -4.9 10.9 -6.4 16.8 -4.8 9.3 2.4 14.2 8.8 14.3 18.4 l0 4.7 -15 0 -15 0 0 2.5 c0 3.4 2.4 8 5.2 9.9 1.2 0.9 4.2 1.6 6.7 1.6 3.8 0 4.9 -0.5 8.2 -4 2.8 -2.9 4.6 -4 6.8 -4 2.8 0 2.9 0.1 2 2.8 -1.3 3.7 -3.9 6.6 -8 9.1 -4.5 2.8 -14 2.9 -18.9 0.2z m21 -24.1 c0 -2.8 -3.4 -8.9 -5.7 -10.1 -5.9 -3.2 -12.7 -0.9 -15.9 5.3 -2.9 5.6 -2.5 5.8 10.1 5.8 6.8 0 11.5 -0.4 11.5 -1z"/>
  <path d="M739.5 555.1 c-10.2 -4.6 -15 -15 -14.3 -30.5 0.5 -10.8 2.5 -15.4 9.3 -21.4 10.7 -9.4 29.1 -7.7 36.7 3.3 1.5 2.2 3 5.2 3.4 6.8 0.6 2.6 0.5 2.7 -3.4 2.7 -3.5 0 -4.1 -0.4 -5 -2.7 -2.2 -6.2 -7.2 -9.3 -15 -9.3 -6.1 0 -10.9 2.6 -14.6 7.8 -2.6 3.6 -3 5.3 -3.4 12.7 -0.8 15 3.5 23.2 13.3 25.3 10.1 2.2 17.8 -2.7 20.9 -13 0.4 -1.3 1.6 -1.8 4.1 -1.8 3 0 3.5 0.3 3.5 2.3 -0.1 6.1 -7.1 15.2 -14.2 18.1 -5.2 2.2 -16.2 2 -21.3 -0.3z"/>
  <path d="M853.1 555.7 c-1.3 -0.6 -3.4 -2.5 -4.5 -4 -1.9 -2.6 -2.1 -4.4 -2.4 -20.3 l-0.4 -17.4 3.5 0 3.5 0 0.4 15.8 c0.3 8.6 0.8 16.4 1.2 17.3 0.8 1.9 4.8 3.9 7.7 3.9 3.1 0 7.5 -3 9 -5.9 0.8 -1.6 1.5 -8 1.7 -16.8 l0.4 -14.3 3.4 0 3.4 0 0 21 0 21 -3.5 0 c-3.1 0 -3.5 -0.3 -3.5 -2.7 l0 -2.6 -2.2 2 c-1.3 1.1 -3.3 2.6 -4.5 3.2 -2.9 1.5 -10.2 1.4 -13.2 -0.2z"/>
  <path d="M897.4 555.1 c-6.5 -4 -9.9 -12 -9.2 -21.5 0.6 -7 3.5 -13.4 7.4 -16.5 5.9 -4.6 15.1 -4.6 20 0 l2.3 2.2 0.3 -10.4 0.3 -10.4 3.3 -0.3 3.2 -0.3 0 29 0 29.1 -3 0 c-2.6 0 -3 -0.4 -3 -2.7 l0 -2.6 -2.2 2 c-1.3 1.1 -3.3 2.6 -4.5 3.2 -3.4 1.8 -11.4 1.3 -14.9 -0.8z m15.8 -6.1 c3.9 -3 5.1 -7 4.6 -15.4 -0.3 -6.7 -0.7 -7.8 -3.3 -10.6 -3.6 -3.8 -9.7 -4.2 -13.9 -0.9 -3.6 2.9 -4.8 6.1 -4.8 13.6 0.1 9.8 4.1 15.3 11.3 15.3 2.1 0 4.7 -0.8 6.1 -2z"/>
  <path d="M1039.4 555.1 c-7 -4.3 -9.8 -10.8 -9.2 -21.5 0.3 -5.9 0.8 -8.1 3.1 -11.5 6.4 -9.7 19 -11.7 27.7 -4.5 4.1 3.5 5.8 7.1 6.6 13.8 l0.7 5.6 -15.7 0 -15.8 0 0.7 3.3 c1.8 8.1 4.7 10.7 11.9 10.7 3.6 0 5 -0.6 7.5 -3.1 1.7 -1.7 3.1 -3.5 3.1 -4 0 -0.5 1.6 -0.9 3.5 -0.9 2.3 0 3.5 0.5 3.5 1.3 0 2.6 -5.7 9.4 -9.3 11 -4.9 2.3 -14.3 2.2 -18.3 -0.2z m20.3 -26.7 c-0.8 -4.7 -3.1 -7.2 -7.8 -8.4 -6.9 -1.9 -13.9 3.2 -13.9 10 0 1.9 0.6 2 11.1 2 l11.2 0 -0.6 -3.6z"/>
  <path d="M1164 555.1 c-11.7 -6.2 -13.4 -27 -3.1 -36.4 5.4 -4.9 10.9 -6.4 16.8 -4.8 9.3 2.4 14.2 8.8 14.3 18.4 l0 4.7 -15 0 -15 0 0 2.5 c0 3.4 2.4 8 5.2 9.9 1.2 0.9 4.2 1.6 6.7 1.6 3.8 0 4.9 -0.5 8.2 -4 2.8 -2.9 4.6 -4 6.8 -4 2.8 0 2.9 0.1 2 2.8 -1.3 3.7 -3.9 6.6 -8 9.1 -4.5 2.8 -14 2.9 -18.9 0.2z m21 -24.1 c0 -2.8 -3.4 -8.9 -5.7 -10.1 -5.9 -3.2 -12.7 -0.9 -15.9 5.3 -2.9 5.6 -2.5 5.8 10.1 5.8 6.8 0 11.5 -0.4 11.5 -1z"/>
  <path d="M1248.4 555.1 c-7 -4.3 -9.8 -10.8 -9.2 -21.5 0.3 -5.9 0.8 -8.1 3.1 -11.5 6.4 -9.7 19 -11.7 27.7 -4.5 4.1 3.5 5.8 7.1 6.6 13.8 l0.7 5.6 -15.7 0 -15.8 0 0.7 3.3 c1 4.6 3.2 8.5 5.4 9.7 1.1 0.5 4.1 1 6.6 1 4 0 5.2 -0.5 7.6 -3.1 1.6 -1.7 2.9 -3.5 2.9 -4 0 -0.5 1.6 -0.9 3.5 -0.9 2.3 0 3.5 0.5 3.5 1.3 0 2.6 -5.7 9.4 -9.3 11 -4.9 2.3 -14.3 2.2 -18.3 -0.2z m20.3 -26.7 c-0.8 -4.7 -3.1 -7.2 -7.8 -8.4 -6.9 -1.9 -13.9 3.2 -13.9 10 0 1.9 0.6 2 11.1 2 l11.2 0 -0.6 -3.6z"/>
  <path d="M1360.5 555.6 c-13.4 -6 -14.2 -30.8 -1.2 -39.4 3.1 -2 5.2 -2.6 9.6 -2.7 11.1 0 17.8 6.2 18.8 17.4 l0.6 6.1 -15.2 0 -15.1 0 0 3 c0 3.8 2.4 8.6 4.9 10 5.5 2.9 15 0 16.6 -5 0.5 -1.5 1.5 -2 4.1 -2 4.1 0 4.3 1.3 1.2 6 -3.9 5.7 -7.1 7.4 -14.6 7.7 -4.2 0.2 -7.9 -0.2 -9.7 -1.1z m19.9 -26.3 c-0.9 -3.8 -1.9 -5.5 -4.3 -7.7 -2.4 -2.2 -8.8 -2.6 -12.3 -0.8 -2.9 1.6 -5.8 6.1 -5.8 9.1 0 2 0.5 2.1 11.5 2.1 l11.5 0 -0.6 -2.7z"/>
  <path d="M581 530.5 l0 -25.5 -9.5 0 -9.5 0 0 -3 0 -3 23.5 0 23.5 0 0 3 0 2.9 -9.7 0.3 -9.8 0.3 -0.3 25.3 -0.2 25.2 -4 0 -4 0 0 -25.5z"/>
  <path d="M615 527 l0 -29 3.5 0 3.5 0 0 10.6 0 10.6 3 -2.6 c5.1 -4.2 13.2 -4.7 18.8 -1 4.3 2.8 5.2 7 5.2 24.4 l0 16 -3.5 0 -3.5 0 0 -14.4 c0 -7.8 -0.5 -15.7 -1.1 -17.4 -2 -5.7 -10.5 -6 -15.9 -0.7 -2.4 2.5 -2.5 3 -2.8 17.5 l-0.4 15 -3.4 0 -3.4 0 0 -29z"/>
  <path d="M784 527.5 l0 -28.5 3.5 0 3.5 0 0 28.5 0 28.5 -3.5 0 -3.5 0 0 -28.5z"/>
  <path d="M967.6 550.8 c-0.8 -2.9 -4 -15 -7.1 -26.8 -3 -11.8 -5.8 -22.3 -6.1 -23.2 -0.5 -1.5 0.1 -1.8 3.8 -1.8 l4.4 0 4.8 21.3 c2.7 11.6 5.2 21.8 5.5 22.5 0.4 0.7 2.9 -6.7 5.6 -16.5 8.3 -30.4 7 -27.3 12 -27.3 4.4 0 4.4 0.1 5.5 4.3 3.1 11.5 11.2 40.2 11.5 40.5 0.2 0.2 1.5 -4.8 2.9 -11 1.5 -6.2 3.9 -16.4 5.3 -22.5 l2.7 -11.3 4.4 0 c3.2 0 4.3 0.4 3.9 1.3 -0.3 0.7 -3.5 12.7 -7.1 26.7 -3.7 14 -6.9 26.3 -7.2 27.3 -0.5 1.4 -1.4 1.7 -4.7 1.5 l-4.2 -0.3 -6.1 -22.2 c-3.4 -12.3 -6.4 -22.8 -6.6 -23.4 -0.2 -0.6 -3.3 9.4 -6.9 22.2 l-6.6 23.4 -4.1 0.3 -4.1 0.3 -1.5 -5.3z"/>
  <path d="M1100 527.6 l0 -28.6 14.5 0 c15.9 0 19.7 0.9 24.8 5.8 5.9 5.5 7.2 9.6 7.2 21.8 0 10.3 -0.2 11.4 -3 16.9 -2.3 4.5 -4.2 6.6 -7.9 9 -4.8 2.9 -5.2 3 -20.3 3.3 l-15.3 0.4 0 -28.6z m31 19.1 c6 -4 7.5 -7.8 7.5 -19.2 0 -8.2 -0.4 -10.7 -2.1 -14 -3.2 -6.1 -6.9 -7.7 -18.5 -8.3 l-9.9 -0.5 0 22.2 0 22.1 9.9 0 c8.5 0 10.2 -0.3 13.1 -2.3z"/>
  <path d="M1286 535 l0 -21 3.5 0 c3.3 0 3.5 0.2 3.5 3.2 0 3.1 0 3.2 1.5 1.2 1.5 -2.3 7.3 -5.4 9.9 -5.4 1.2 0 1.6 1 1.6 4 0 3.9 -0.1 4 -3.5 4 -3.8 0 -6.9 2.4 -8.5 6.6 -0.6 1.4 -1 8.4 -1 15.5 l0 12.9 -3.5 0 -3.5 0 0 -21z"/>
  <path d="M1321.9 553.3 c-4.1 -10.7 -13.9 -37.6 -13.9 -38.4 0 -0.5 1.7 -0.9 3.8 -0.9 l3.8 0 5.4 16.5 c3 9.1 5.7 16.1 6.1 15.7 0.3 -0.4 3 -7.8 6 -16.4 l5.4 -15.8 3.9 0 c2.6 0 3.7 0.4 3.4 1.3 -0.3 0.6 -3.8 10.1 -7.9 20.9 l-7.4 19.8 -3.8 0 c-3.2 0 -3.9 -0.4 -4.8 -2.7z"/>
  <path d="M101.4 470 c-17.2 -2.5 -36.3 -13.6 -51.8 -30.1 -22.7 -24.2 -41 -65.4 -47.1 -106.4 -2.2 -14.5 -2.1 -73.4 0.1 -88.1 2 -13.4 7.2 -34.8 11.7 -47.9 18.1 -52.9 46.1 -89.7 80.1 -105.5 24.9 -11.6 48.5 -8.3 66.8 9.3 7.7 7.4 11.2 12.4 17.1 24.3 6.1 12.1 9.2 21.3 12.3 35.7 2.3 10.8 2.7 15.2 3.1 38.4 0.3 14.5 0.2 28.3 -0.1 30.8 -0.9 5.9 -4.8 10.5 -8.8 10.5 -7.1 0 -8.2 -2.5 -9.8 -23 -2.6 -33.5 -10.3 -60.5 -22 -77.6 -7.7 -11 -19.1 -19.4 -26.6 -19.4 -5.5 0 -16.7 6.5 -25.5 14.8 -20.4 19.1 -36.4 47.1 -48.9 85.1 -8.9 27 -10.9 41.8 -11 79.1 0 59 15.2 107.1 41.8 132.1 20.4 19.2 39.4 19.6 63.8 1.1 9.8 -7.4 28.3 -26.5 44.7 -46 6.6 -7.9 12.9 -14.7 14.1 -15.2 3.4 -1.3 7.9 1.1 10 5.5 l1.9 3.9 -3.1 6 c-6.7 12.8 -38.7 49.8 -54.1 62.7 -18.4 15.3 -39.8 22.6 -58.7 19.9z"/>
  <path d="M1050.5 469.7 c-13.2 -4.4 -19.5 -12.4 -20.3 -25.7 -0.5 -9 1.3 -17.1 5.9 -26.2 9 -17.8 21.6 -31.7 54.7 -59.8 l7.4 -6.2 -2.9 -2 c-1.5 -1 -12.9 -7 -25.3 -13.3 -12.4 -6.3 -26.7 -13.9 -31.9 -17 -5.2 -3 -9.5 -5.4 -9.5 -5.3 -0.1 0.2 -2.6 6.6 -5.5 14.3 -12.9 33.6 -19.6 46.8 -29 56.4 -6.5 6.6 -11.3 8.8 -23.6 10.9 -13.4 2.3 -20.9 1.6 -30.1 -2.7 -17 -7.9 -29.2 -22.4 -38.1 -45 -0.8 -2.1 -1.5 -1 -5.8 9.5 -17.9 44 -36.2 71.8 -55.4 84.3 -8.6 5.5 -14.3 7.2 -24.6 7.2 -7.9 0 -9.3 -0.3 -16.1 -3.7 -25.2 -12.4 -41.2 -50.4 -47.9 -113.3 -0.8 -7.9 -1.5 -15.1 -1.5 -16 -0.1 -0.9 -2 3.1 -4.4 8.9 -5.5 13.5 -8.6 19.6 -15.2 29.7 -8 12.4 -14.9 15.8 -25.4 12.7 -7.4 -2.2 -15.9 -10.7 -20.4 -20.4 l-3.3 -7.1 -5.3 12.3 c-11.8 27.3 -21.9 44.1 -31.8 53 -30.3 27.2 -59.5 12.7 -76.2 -38 -4 -12.4 -8.9 -34.2 -11 -49.4 -0.7 -4.9 -1.3 -8.8 -1.5 -8.8 -0.2 0 -1.6 3.3 -3.1 7.3 -11.3 30.1 -23.2 49.4 -33.9 55 -5.6 3 -16.2 3 -22.8 0 -14 -6.4 -24.8 -27.4 -27.9 -54.5 -1.2 -10.8 -0.9 -10.5 -8.3 -8.8 -2.2 0.4 -9.2 1.4 -15.5 2 -6.3 0.6 -11.6 1.2 -11.7 1.4 -0.2 0.2 -1.4 4.8 -2.8 10.2 -8.4 34.8 -26.3 64.4 -42.1 69.8 -16.5 5.6 -32.4 -4 -40.4 -24.5 l-2.6 -6.8 -6.6 13.7 c-11.8 24.8 -25.2 41.3 -38.4 47.8 -5.2 2.5 -7 2.9 -14.9 2.9 -7.6 0 -9.8 -0.4 -14.5 -2.6 -26.5 -12.6 -45.4 -52.6 -52.7 -111.3 -2 -16.2 -2.2 -65 -0.4 -80.6 8.6 -74.2 43.5 -129 82 -129 10.7 0 16.5 2.2 23.2 8.9 4.9 4.9 6.1 6.9 8 13.2 6.1 19.8 0.1 51 -16 83.4 -16 32.3 -36.3 58.2 -53.9 68.9 l-6.2 3.7 0 6.7 c0 13.5 2 44.4 3.5 54.4 3.3 22 9.4 40.5 16.5 49.9 9.2 12.3 16.5 13.1 27.2 3.2 10 -9.4 21.8 -30.5 36.7 -65.8 9.8 -23.1 13.7 -31 17.3 -35.1 l3 -3.4 -2.2 -5.3 c-3.4 -7.7 -3.8 -18.5 -1 -26 6.2 -16.4 23.4 -27.9 39.6 -26.4 6.9 0.7 15.5 4 21 8.2 4.6 3.5 10 12.2 12.8 20.6 2.2 6.5 3.1 12.1 5.2 29.4 l0.5 4.1 7.7 -0.7 c16.4 -1.6 24.2 -3.1 24.2 -4.8 0.1 -7.1 2.3 -26.6 3.5 -30.8 2.8 -9.5 9.1 -14.6 18.1 -14.5 5.8 0 8.5 1.1 12.7 5.1 6.6 6 7.5 12.1 5.3 35.7 -1.9 20 -2 34.2 -0.5 45 1.2 9.1 4.5 18.4 6.4 18.4 3.1 0 13.8 -17.3 19.8 -32 2 -4.7 7.2 -20.6 11.6 -35.2 4.4 -14.7 8.7 -28.3 9.5 -30.1 3.4 -8.3 17.4 -14 26 -10.7 4.3 1.6 10.3 7.8 12.5 12.9 2.8 6.6 3.8 15 5.1 43.5 2.1 48 6.7 75.5 15.1 90.2 3.6 6.4 5.2 7.7 8.9 7.6 3.7 -0.1 12.5 -5.7 16.9 -10.8 6.3 -7.1 14.2 -20.3 22.6 -37.7 12.4 -25.7 15.6 -34.5 16.6 -45.2 1 -11.2 2.9 -18.6 7.3 -28.1 6.2 -13.3 15.1 -23.2 26.9 -29.5 5.9 -3.2 6.7 -3.4 16.7 -3.4 9.9 0 11 0.2 17 3.2 3.5 1.7 6.7 3 7.1 2.8 0.3 -0.3 0.9 -4.1 1.3 -8.6 2.5 -30.2 14.7 -82.3 23.2 -99 4.3 -8.7 12.5 -13 20.3 -10.9 4.4 1.1 10.7 7.4 11.7 11.6 1.1 4.4 -0.5 16.9 -5.6 42.4 -15.9 80 -19.9 142.5 -12.4 192 3.3 21.7 10.7 40.3 19.4 48.4 7.9 7.4 14 7.2 25.7 -1.1 19.6 -13.8 40.8 -51.1 54.2 -95.4 3.8 -12.4 4.1 -14.4 4.1 -25 0 -27.6 5.9 -50.5 17.1 -67.4 10.6 -15.9 23.8 -22.3 37.9 -18.5 6 1.6 14 9.7 15.9 16 3.6 12.2 2.2 21.9 -5.9 38.5 -5.5 11.4 -14.3 21.8 -23.5 28 -5.4 3.5 -5.5 3.7 -5.5 8.3 0 8.7 2.1 26.7 4 34.9 2.5 10.7 7 20 12.7 26.3 6.1 6.8 10.6 9 18.5 9 19 0 32.7 -17.4 47.4 -60.5 l4.5 -12.9 -2.2 -5.1 c-6.8 -15.7 -1.2 -34.3 15.3 -50.7 12.2 -12.2 22.6 -17.2 34.5 -16.6 6.2 0.3 7.7 0.7 11 3.4 2.1 1.7 4.4 4.3 5.2 5.9 4.3 8.7 1.3 16.3 -9.4 24 -8.6 6.2 -19.2 16.1 -21.1 19.7 -1.2 2.3 -1.2 3.2 -0.2 4.9 2.1 3.3 11.8 10.2 27 18.9 20.9 12 33.6 19.8 39.5 24.3 l5.2 3.9 22.3 -16.5 c12.3 -9.1 26.2 -19 31 -21.9 l8.7 -5.3 0.1 -33 c0 -20.8 0.6 -38.4 1.5 -47.5 1.8 -18.2 1.8 -19 0.1 -19 -0.8 0 -11.9 3.2 -24.7 7.1 -35.4 10.7 -39.6 11.4 -46.3 8.2 -6.7 -3.2 -8.9 -13.5 -4 -19.3 1.5 -1.7 3.9 -3.7 5.4 -4.5 5 -2.6 24 -7.4 47 -12.1 12.4 -2.4 23.5 -4.7 24.7 -4.9 3.1 -0.7 3.9 -2.6 7.2 -17.2 4.1 -18.2 6.2 -23.2 12 -28.6 4.4 -4.1 9.9 -6.7 14.1 -6.7 6.7 0 14.6 5.4 18.2 12.4 2.3 4.5 2.9 13.5 1.5 24.2 l-0.8 6.1 4.8 -0.8 c78.7 -13 109.2 -17.2 127 -17.3 13.6 -0.1 14.2 0 16.7 2.3 2 1.9 2.6 3.4 2.6 6.8 0 6.9 -2.6 8.8 -13.1 9.7 -25.4 2.2 -139.4 21.7 -142.1 24.4 -1.9 1.9 -7.4 40.7 -10 70.2 -1.9 22.4 -1.6 75.2 0.5 93 5 40.1 15.8 73.5 25.3 77.9 5.8 2.6 11.4 -3.6 20.5 -22.4 10.9 -22.8 34.9 -86.1 36.8 -97.5 1.4 -8 2.6 -10.5 5.8 -11.9 3.5 -1.6 5.7 -1.4 8.7 1 2.2 1.7 2.6 2.8 2.6 6.9 0 13.7 -23.1 84.1 -36.7 111.9 -8.8 18 -20.2 32 -29 35.8 -5.7 2.4 -13.9 2.1 -19.8 -0.7 -5.5 -2.6 -15.4 -11.9 -20.2 -19.1 -15 -21.9 -27.5 -60.5 -32.9 -101 -0.9 -7.4 -2.1 -13.8 -2.5 -14.3 -0.8 -0.9 -14.7 8.8 -34.9 24.3 -6.8 5.3 -13 10.1 -13.8 10.6 -1 0.9 -0.5 2.4 2.7 8 6.2 10.9 8.3 18.4 8.3 29.5 -0.1 15 -5 30.5 -14.7 45.6 -4.6 7.2 -16.8 20 -25.3 26.4 -7.5 5.7 -20.7 12.4 -28.7 14.5 -8.5 2.2 -23.1 2.8 -28 1.2z m19.1 -28.4 c8.4 -2.9 16.6 -8.3 25 -16.7 13.3 -13.3 21.4 -29.5 21.4 -43 0 -5.9 -2.3 -15 -4 -16.1 -2.3 -1.4 -33.3 28.2 -44.8 42.7 -11.3 14.4 -16.9 29 -12.6 33.2 2 2.1 8.7 2.1 15 -0.1z m-679.7 -71.7 c10.5 -7.8 23.7 -33.9 25.7 -50.8 l0.7 -5.6 -7.9 -0.6 c-7.6 -0.6 -17.9 -2 -23.6 -3.2 -2.5 -0.6 -2.8 -0.3 -2.8 1.9 0 1.5 -0.9 7.3 -2 12.9 -4.2 21.3 -4.5 39.4 -0.7 45.1 2.2 3.4 6.2 3.5 10.6 0.3z m331.1 -32.7 c6.5 -10.1 10.1 -18 17.5 -38.3 4.2 -11.7 5.5 -16.4 4.8 -17.5 -1.9 -3 -9.2 -7.4 -12.3 -7.4 -6.7 0 -16 13.8 -19.5 28.8 -3.4 14.7 -1.2 42.5 3.4 42.5 0.5 0 3.2 -3.7 6.1 -8.1z m-304.4 -48.1 c-1.7 -14.3 -8 -27.9 -14.7 -31.4 -6.9 -3.5 -17.6 0.3 -21.4 7.6 -3.4 6.5 -0.9 15.5 5.8 21.1 5.6 4.7 17.3 8.6 26.6 8.8 l4.4 0.1 -0.7 -6.2z m527 -28.7 c1.8 -3.5 2.9 -7.5 3.2 -11.3 0.6 -7.7 -0.9 -9.4 -3.6 -4.2 -2.3 4.6 -7.8 20.5 -8.7 25.4 l-0.6 3.5 3.5 -4 c1.9 -2.2 4.7 -6.4 6.2 -9.4z m-677.9 -15.8 c28.4 -31.6 47.8 -75.2 44.7 -100 -1.3 -10.9 -6 -11.9 -14.5 -3.1 -15.8 16.4 -28.5 47 -35.3 84.8 -3 17.1 -4 26 -2.8 26 0.6 0 4.1 -3.5 7.9 -7.7z"/>
 </g>
</svg>